<svg width="32" height="32" viewBox="0 0 32 32" fill="none" xmlns="http://www.w3.org/2000/svg">
<rect width="32" height="32" rx="4" fill="url(#paint0_linear_2_5)"/>
<path d="M18.465 9.13501C18.5078 9.01272 18.5116 8.88015 18.4757 8.75564C18.4399 8.63113 18.3663 8.52083 18.265 8.44001L18.0425 8.27876C17.2615 7.76262 16.3748 7.42817 15.4475 7.30001C13.7687 7.07751 11.63 7.53626 9.54999 9.91626H8.23249C8.15027 9.91628 8.06886 9.93251 7.99293 9.96405C7.917 9.99558 7.84804 10.0418 7.78999 10.1L6.18249 11.7088C6.0657 11.8259 6.00012 11.9846 6.00012 12.15C6.00012 12.3154 6.0657 12.4741 6.18249 12.5913L9.39624 15.815C9.4543 15.8732 9.52327 15.9194 9.5992 15.9509C9.67513 15.9824 9.75653 15.9986 9.83874 15.9986C9.92095 15.9986 10.0024 15.9824 10.0783 15.9509C10.1542 15.9194 10.2232 15.8732 10.2812 15.815L11.8887 14.2025C12.0056 14.0854 12.0712 13.9267 12.0712 13.7613V12.9625L22.555 24.0538C22.6084 24.1262 22.6768 24.1862 22.7555 24.2298C22.8342 24.2734 22.9214 24.2994 23.0111 24.3062C23.1009 24.313 23.191 24.3003 23.2754 24.269C23.3597 24.2377 23.4364 24.1886 23.5 24.125L25.375 22.25C25.4883 22.1366 25.5538 21.9839 25.5577 21.8236C25.5617 21.6633 25.5039 21.5076 25.3962 21.3888L13.985 10.6013C14.9187 10.0313 16.2 9.55251 17.875 9.55251C18.0045 9.5526 18.1308 9.51248 18.2365 9.43769C18.3422 9.3629 18.422 9.25714 18.465 9.13501Z" fill="white"/>
<defs>
<linearGradient id="paint0_linear_2_5" x1="1" y1="-1.15484e-07" x2="32" y2="32" gradientUnits="userSpaceOnUse">
<stop stop-color="#9F00FF"/>
<stop offset="1" stop-color="#7000FC"/>
</linearGradient>
</defs>
</svg>
